<svg width="370" height="370" viewBox="0 0 370 370" fill="none" xmlns="http://www.w3.org/2000/svg" role="img" aria-label="VIP 9 OBSIDIAN icon">
  <defs>
    <radialGradient id="vip9_halo" cx="50%" cy="46%" r="56%">
      <stop offset="0%" stop-color="#8EA4FF" stop-opacity="0.96"/>
      <stop offset="42%" stop-color="#111827" stop-opacity="0.42"/>
      <stop offset="100%" stop-color="#05070D" stop-opacity="0"/>
    </radialGradient>
    <linearGradient id="vip9_metal" x1="85" y1="44" x2="286" y2="314" gradientUnits="userSpaceOnUse">
      <stop offset="0%" stop-color="#F5F7FF"/>
      <stop offset="22%" stop-color="#8EA4FF"/>
      <stop offset="47%" stop-color="#111827"/>
      <stop offset="72%" stop-color="#05070D"/>
      <stop offset="100%" stop-color="#8EA4FF"/>
    </linearGradient>
    <linearGradient id="vip9_deep" x1="96" y1="78" x2="281" y2="300" gradientUnits="userSpaceOnUse">
      <stop offset="0%" stop-color="#111827"/>
      <stop offset="50%" stop-color="#05070D"/>
      <stop offset="100%" stop-color="#05070D"/>
    </linearGradient>
    <linearGradient id="vip9_shine" x1="116" y1="75" x2="245" y2="269" gradientUnits="userSpaceOnUse">
      <stop offset="0%" stop-color="#FFFFFF" stop-opacity="0.98"/>
      <stop offset="34%" stop-color="#8EA4FF" stop-opacity="0.82"/>
      <stop offset="100%" stop-color="#111827" stop-opacity="0.08"/>
    </linearGradient>
    <filter id="vip9_shadow" x="-20%" y="-20%" width="140%" height="150%" color-interpolation-filters="sRGB">
      <feDropShadow dx="0" dy="14" stdDeviation="13" flood-color="#02040A" flood-opacity="0.72"/>
      <feDropShadow dx="0" dy="0" stdDeviation="7" flood-color="#FF315E" flood-opacity="0.42"/>
    </filter>
    <filter id="vip9_softGlow" x="-50%" y="-50%" width="200%" height="200%" color-interpolation-filters="sRGB">
      <feGaussianBlur stdDeviation="5" result="blur"/>
      <feMerge>
        <feMergeNode in="blur"/>
        <feMergeNode in="SourceGraphic"/>
      </feMerge>
    </filter>
    <clipPath id="vip9_shieldClip">
      <path d="M185 64L286 105V178C286 245 242 293 185 315C128 293 84 245 84 178V105L185 64Z"/>
    </clipPath>
  </defs>

  <circle cx="185" cy="185" r="166" fill="url(#vip9_halo)"/>
  <g opacity="0.78" filter="url(#vip9_softGlow)">
    <path d="M185 18L197 62L232 31L224 77L269 61L241 98L289 101L248 125L292 146L243 153L276 189L229 174L239 221L204 189L185 233L166 189L131 221L141 174L94 189L127 153L78 146L122 125L81 101L129 98L101 61L146 77L138 31L173 62L185 18Z" fill="#FF315E" opacity="0.16"/>
  </g>

  <g filter="url(#vip9_shadow)">
    <path d="M185 36L312 88V178C312 260 257 319 185 344C113 319 58 260 58 178V88L185 36Z" fill="#060914" opacity="0.72"/>
    <path d="M185 43L304 92V178C304 255 252 311 185 335C118 311 66 255 66 178V92L185 43Z" fill="url(#vip9_metal)"/>
    <path d="M185 61L286 103V178C286 245 242 293 185 315C128 293 84 245 84 178V103L185 61Z" fill="url(#vip9_deep)"/>
    <path d="M185 43L304 92V178C304 255 252 311 185 335C118 311 66 255 66 178V92L185 43Z" stroke="#FFFFFF" stroke-opacity="0.7" stroke-width="5"/>
    <path d="M185 59L289 101V178C289 247 244 297 185 319C126 297 81 247 81 178V101L185 59Z" stroke="#000000" stroke-opacity="0.38" stroke-width="6"/>

    <g clip-path="url(#vip9_shieldClip)" opacity="0.9">
      <path d="M70 105C124 84 190 88 298 116V78H70V105Z" fill="#FFFFFF" opacity="0.28"/>
      <path d="M85 276C128 247 227 244 292 278V326H85V276Z" fill="#000000" opacity="0.23"/>
      <path d="M92 106L282 291" stroke="#FFFFFF" stroke-opacity="0.15" stroke-width="16"/>
      <path d="M123 76L316 264" stroke="#FFFFFF" stroke-opacity="0.08" stroke-width="7"/>
    </g>

    <g transform="translate(0 -1)">
      <path d="M123 105L146 75L169 105L185 66L201 105L224 75L247 105L238 137H132L123 105Z" fill="url(#vip9_metal)" stroke="#FFFFFF" stroke-opacity="0.75" stroke-width="4" stroke-linejoin="round"/>
      <circle cx="146" cy="75" r="8" fill="#F5F7FF"/>
      <circle cx="185" cy="66" r="9" fill="#F5F7FF"/>
      <circle cx="224" cy="75" r="8" fill="#F5F7FF"/>
      <path d="M139 124H231" stroke="#000000" stroke-opacity="0.36" stroke-width="7" stroke-linecap="round"/>
      <path d="M140 119H230" stroke="#FFFFFF" stroke-opacity="0.55" stroke-width="3" stroke-linecap="round"/>
    </g>

    <g transform="translate(0 5)">
      <path d="M185 110L248 146L248 217L185 253L122 217L122 146L185 110Z" fill="#050914" opacity="0.64"/>
      <path d="M185 98L256 139L256 221L185 262L114 221L114 139L185 98Z" fill="url(#vip9_metal)" stroke="#FFFFFF" stroke-opacity="0.8" stroke-width="5"/>
      <path d="M185 121L232 149L214 218L185 238L156 218L138 149L185 121Z" fill="url(#vip9_shine)" stroke="#FFFFFF" stroke-opacity="0.7" stroke-width="3"/>
      <path d="M185 121L185 238M138 149L232 149M156 218L185 121L214 218" stroke="#FFFFFF" stroke-opacity="0.4" stroke-width="2"/>
      <path d="M138 149L185 121L232 149L185 165L138 149Z" fill="#FFFFFF" opacity="0.26"/>
    </g>

    <text x="185" y="190" text-anchor="middle" font-family="Arial Black, Arial, sans-serif" font-size="58" font-weight="900" letter-spacing="0" fill="#FFFFFF" stroke="#05070D" stroke-width="6" paint-order="stroke">VIP</text>
    <text x="185" y="232" text-anchor="middle" font-family="Arial Black, Arial, sans-serif" font-size="40" font-weight="900" letter-spacing="0" fill="#F5F7FF" stroke="#05070D" stroke-width="5" paint-order="stroke">IX</text>

    <g opacity="0.95">
      <path d="M96 237C118 260 147 277 185 291C223 277 252 260 274 237" stroke="#F5F7FF" stroke-width="5" stroke-linecap="round" opacity="0.78"/>
      <path d="M112 259L126 265M132 271L148 276M222 276L238 271M244 265L258 259" stroke="#FF315E" stroke-width="5" stroke-linecap="round" opacity="0.86"/>
      <rect x="125" y="264" width="120" height="34" rx="17" fill="#05070D" opacity="0.82"/>
      <rect x="129" y="268" width="112" height="26" rx="13" fill="url(#vip9_metal)" opacity="0.94"/>
      <text x="185" y="287" text-anchor="middle" font-family="Arial Black, Arial, sans-serif" font-size="16" font-weight="900" letter-spacing="1.4" fill="#05070D">OBSIDIAN</text>
    </g>
  </g>

  <g filter="url(#vip9_softGlow)">
    <path d="M76 76L83 92L99 99L83 106L76 122L69 106L53 99L69 92L76 76Z" fill="#F5F7FF" opacity="0.92"/>
    <path d="M293 62L299 76L313 82L299 88L293 102L287 88L273 82L287 76L293 62Z" fill="#FF315E" opacity="0.78"/>
    <path d="M306 236L312 249L325 255L312 261L306 274L300 261L287 255L300 249L306 236Z" fill="#F5F7FF" opacity="0.72"/>
    <circle cx="70" cy="239" r="4" fill="#FF315E" opacity="0.9"/>
    <circle cx="303" cy="160" r="4" fill="#F5F7FF" opacity="0.8"/>
  </g>
</svg>
